<svg id="Layer_3" enable-background="new 0 0 64 64" height="512" viewBox="0 0 64 64" width="512" xmlns="http://www.w3.org/2000/svg"><g><g><g><path d="m24 3.999h-8.631l.631-1.999h8z" fill="#956346"/></g></g><g><g><path d="m48.631 3.999h-8.631v-1.999h8z" fill="#6b442b"/></g></g><g><path d="m4 40 12-38h4l-12 38z" fill="#6b442b"/></g><g><path d="m12.101 27.014 7.899-25.014h-4l-7.674 24.302c1.221.336 2.481.58 3.775.712z" fill="#956346"/></g><g><path d="m22 8 2-6h16l2 6z" fill="#d19e6d"/></g><g><path d="m37.57 4.032c0-.685-.036-1.362-.094-2.032h-13.476l-2 6h15.224c.223-1.29.346-2.614.346-3.968z" fill="#e2b88f"/></g><g><path d="m22 8h20v6h-20z" fill="#a97241"/></g><g><path d="m37.224 8h-15.224v6h13.314c.897-1.873 1.544-3.888 1.91-6z" fill="#d19e6d"/></g><g><path d="m20 20 2-6h20l2 6z" fill="#d19e6d"/></g><g><path d="m35.314 14h-13.314l-2 6h11.154c1.684-1.759 3.096-3.779 4.16-6z" fill="#e2b88f"/></g><g><path d="m20 20h24v6h-24z" fill="#a97241"/></g><g><path d="m20 20v6h1.619c3.667-1.193 6.929-3.278 9.535-6z" fill="#bf8859"/></g><g><path d="m18 32 2-6h24l2 6z" fill="#d19e6d"/></g><g><path d="m15 44 3-6h28l3 6z" fill="#d19e6d"/></g><g><path d="m12 56 3-6h34l3 6z" fill="#d19e6d"/></g><g><path d="m18 32h28v6h-28z" fill="#a97241"/></g><g><path d="m15 44h34v6h-34z" fill="#a97241"/></g><g><path d="m12 56h40v6h-40z" fill="#a97241"/></g><g><path d="m60 40-12-38h-4l12 38z" fill="#6b442b"/></g><g><path d="m60 40-12-38h-4l12 38z" fill="#6b442b"/></g><g><path d="m4 40h4v18h-4z" fill="#956346"/></g><g><path d="m56 40h4v18h-4z" fill="#956346"/></g><g><path d="m52 58h10v4h-10z" fill="#6b442b"/></g><g><path d="m3 58h10v4h-10z" fill="#6b442b"/></g></g></svg>