<svg id="filled_outline" height="512" viewBox="0 0 512 512" width="512" xmlns="http://www.w3.org/2000/svg" data-name="filled outline"><path d="m384 88 104 400h-32l-104-400z" fill="#4976f2"/><path d="m352 88 104 400h-40l-104-400z" fill="#548aff"/><path d="m401.44 432h40l14.56 56h-40z" fill="#718799"/><path d="m441.44 432h32l14.56 56h-32z" fill="#556c80"/><path d="m311.175 88h-31.175l-104 400h31.175z" fill="#3b57c4"/><path d="m240 88-104 400h40l104-400z" fill="#486be0"/><path d="m150.56 432h40l-14.56 56h-40z" fill="#718799"/><path d="m190.56 432h31.175l-14.56 56h-31.175z" fill="#556c80"/><path d="m199.175 88h-31.175l-104 400h31.175z" fill="#4976f2"/><path d="m272 88 104 400h-32l-104-400z" fill="#4976f2"/><path d="m200 24h144l40 32v32h-184z" fill="#ffb401"/><path d="m200 24h-32l-40 32v32h112v-32z" fill="#ffc431"/><path d="m128 88-104 400h40l104-400z" fill="#548aff"/><path d="m240 88 104 400h-40l-104-400z" fill="#548aff"/><path d="m160 240h119.52l-8.32-32h-111.2z" fill="#556c80"/><path d="m38.56 432h40l-14.56 56h-40z" fill="#718799"/><path d="m289.44 432h40l14.56 56h-40z" fill="#718799"/><g fill="#556c80"><path d="m426.88 376h-80l-8.32-32h80z"/><path d="m401.92 280h-80l-8.32-32h80z"/><path d="m288.64 152h80l8.32 32h-80z"/></g><path d="m96.8 208h95.2v16l-24 16h-79.52z" fill="#718799"/><path d="m329.44 432h32l14.56 56h-32z" fill="#556c80"/><path d="m78.56 432h31.175l-14.56 56h-31.175z" fill="#556c80"/><path d="m213.44 344h-80.825l-8.32 32h80.825z" fill="#718799"/><circle cx="184" cy="56" r="8"/><path d="m408.25781 490.0127a7.99893 7.99893 0 0 0 7.74219 5.9873h72a7.999 7.999 0 0 0 7.74219-10.0127l-103.74219-399.0083v-30.979a7.99846 7.99846 0 0 0 -3.00293-6.24707l-40-32a7.998 7.998 0 0 0 -4.99707-1.75293h-176a8.0027 8.0027 0 0 0 -4.99805 1.75293l-40 32a8.00055 8.00055 0 0 0 -3.00195 6.24707v30.979l-103.74219 399.0083a7.999 7.999 0 0 0 7.74219 10.0127h71.1748a7.99892 7.99892 0 0 0 7.74219-5.9873l27.56348-106.0127h25.11841l-26.51588 101.9873a7.999 7.999 0 0 0 7.7422 10.0127h71.1748a7.99893 7.99893 0 0 0 7.74219-5.9873l40.25757-154.83741 40.25805 154.83741a7.99893 7.99893 0 0 0 7.74219 5.9873h72a7.999 7.999 0 0 0 7.74219-10.0127l-26.5166-101.9873h23.46875zm-158.39281-242.0127h23.46948l45.75977 176h-23.46876zm-41.78564 88h-23.46925l22.88012-88h23.469zm-73.89381-240h23.469l-27.04029 104h-23.46875zm99.6289 0 27.04 104h-23.46871l-27.04028-104zm-39.39257 136 2.01562-1.34375a7.99943 7.99943 0 0 0 3.5625-6.65625v-8h65.01465l4.15967 16zm9.01757-32h-25.11865l21.2666-81.79639 12.55933 48.30469zm-41.64966 0h-14.64453l27.04029-104h14.6438zm22.21021 16v3.71875l-18.42188 12.28125h-66.75244l4.15992-16zm-65.865 32-45.76049 176h-23.46875l45.75977-176zm16.531 0h14.64379l-45.76047 176h-14.64356zm31.1748 0h25.11841l-22.88011 88h-25.11865zm84.50466-152h15.469l85.27979 328h-15.46876zm95.469 0 12.48 48h-23.46926l-12.4795-48zm-17.709 176-4.16016-16h63.46924l4.15967 16zm2.66894-80 12.4795 48h-23.46826l-12.48-48zm29.01075 48-12.4795-48h23.46875l12.48 48zm-56.63965-64-2.88037-11.07764 1.27979-4.92236h60.90967l4.15967 16zm2.55957-32 6.29493-24.20947 6.294 24.20947zm-13.70507-10.86768-9.6543-37.13232h19.3086zm40.26562 154.86768h23.46876l12.47949 48h-23.46826zm52.4795 48-12.4795-48h23.46876l12.48 48zm-22.39942-240h15.46875l85.27979 328h-15.46875zm68.74854 328h-23.46875l-10.3999-40h23.46875zm-8.90869 56-10.39991-40h23.46875l10.39991 40zm40 0-10.39991-40h15.46875l10.39991 40zm-86.18555-420.15527v20.15527h-128v-24a8.00055 8.00055 0 0 0 -3.00195-6.24707l-22.19117-17.75293h118.38648zm-240 0 34.80664-27.84473h26.38672l34.80664 27.84473v20.15527h-96zm-78.18555 420.15527h-23.46875l10.39991-40h23.469zm31.17481 0h-14.6438l10.40015-40h14.64379zm49.81128-128h65.11889l-4.15991 16h-65.1189zm56.79907 32-10.40015 40h-23.46924l10.39966-40zm-24.96 96h-23.46871l10.39966-40h23.469zm31.1748 0h-14.6438l10.39991-40h14.6438zm14.56006-56h-14.644l38.68164-148.77661 7.32227 28.16138zm93.811 56-10.39991-40h23.46875l10.39991 40zm40 0-10.39991-40h15.46875l10.39991 40zm-1.28028-128h63.46924l4.15967 16h-63.46867z"/></svg>