<svg height="419pt" viewBox="0 0 419.31331 419" width="419pt" xmlns="http://www.w3.org/2000/svg"><path d="m320.851562 167.472656c0 88.601563-71.824218 160.425782-160.425781 160.425782-88.601562 0-160.425781-71.824219-160.425781-160.425782 0-88.601562 71.824219-160.429687 160.425781-160.429687 88.601563 0 160.425781 71.828125 160.425781 160.429687zm0 0" fill="#edebdc"/><path d="m361.492188 215.300781c0 63.71875-51.65625 115.371094-115.375 115.371094s-115.371094-51.652344-115.371094-115.371094c0-63.722656 51.652344-115.375 115.371094-115.375s115.375 51.652344 115.375 115.375zm0 0" fill="#fc8c29"/><g fill="#4c241d"><path d="m246.121094 337.5c-67.382813 0-122.207032-54.820312-122.207032-122.203125 0-67.378906 54.820313-122.199219 122.207032-122.199219 67.378906 0 122.199218 54.820313 122.199218 122.199219 0 67.382813-54.820312 122.203125-122.199218 122.203125zm0-230.75c-59.855469 0-108.550782 48.695312-108.550782 108.550781 0 59.851563 48.695313 108.546875 108.550782 108.546875 59.855468 0 108.546875-48.695312 108.546875-108.546875 0-59.855469-48.691407-108.550781-108.546875-108.550781zm0 0"/><path d="m185.035156 418.863281c-.796875 0-1.609375-.144531-2.40625-.445312-3.527344-1.324219-5.308594-5.265625-3.976562-8.792969l7.542968-20.019531c4.214844-11.203125 1.609376-23.671875-6.804687-32.550781-7.71875-8.136719-18.476563-11.054688-28.761719-7.789063-28.558594 9.519531-58.945312-5.679687-68.285156-33.691406-8.214844-24.648438 2.386719-51.554688 25.203125-63.972657l21.285156-11.585937c3.3125-1.800781 7.457031-.582031 9.257813 2.734375 1.804687 3.308594.582031 7.457031-2.730469 9.257812l-21.285156 11.589844c-17 9.25-24.898438 29.296875-18.777344 47.664063 6.960937 20.867187 29.601563 32.179687 50.46875 25.230469.042969-.011719.722656-.238282.761719-.25 15.355468-4.867188 31.367187-.601563 42.769531 11.425781 12.042969 12.699219 15.75 30.617187 9.667969 46.753906l-7.539063 20.019531c-1.03125 2.734375-3.628906 4.417969-6.390625 4.421875zm0 0"/><path d="m194.585938 323.246094c-3.59375 0-6.605469-2.8125-6.808594-6.445313-.609375-11.003906-1.851563-50.3125 7.804687-94.21875 12.636719-57.425781 38.183594-98.777343 75.945313-122.90625 3.160156-2.027343 7.394531-1.097656 9.425781 2.078125 2.027344 3.175782 1.101563 7.398438-2.082031 9.429688-83.382813 53.289062-78.3125 189.5-77.464844 204.855468.210938 3.765626-2.671875 6.988282-6.433594 7.195313-.132812.007813-.257812.011719-.386718.011719zm0 0"/><path d="m221.554688 332.917969c-3.648438 0-6.671876-2.886719-6.8125-6.566407-5.621094-147.863281 65.527343-202.164062 87.460937-215.289062 3.238281-1.933594 7.425781-.878906 9.363281 2.359375 1.933594 3.234375.882813 7.425781-2.351562 9.363281-82.402344 49.28125-81.792969 177.785156-80.832032 203.046875.144532 3.769531-2.796874 6.9375-6.5625 7.082031-.085937.003907-.179687.003907-.265624.003907zm0 0"/><path d="m167.179688 303.339844c-3.679688 0-6.714844-2.925782-6.820313-6.632813-.941406-32.359375 1.261719-142.394531 69.015625-199.546875 2.886719-2.441406 7.1875-2.066406 9.621094.8125 2.425781 2.882813 2.066406 7.191406-.820313 9.621094-63.078125 53.214844-65.058593 157.902344-64.167969 188.722656.109376 3.765625-2.855468 6.910156-6.625 7.019532-.070312.003906-.136718.003906-.203124.003906zm0 0"/><path d="m277.574219 333.121094c-1.355469 0-2.71875-.398438-3.914063-1.238282-20.453125-14.359374-38.792968-30.785156-54.507812-48.820312-2.480469-2.839844-2.179688-7.152344.660156-9.628906 2.835938-2.472656 7.152344-2.191406 9.636719.664062 14.984375 17.199219 32.5 32.882813 52.050781 46.609375 3.089844 2.167969 3.835938 6.425781 1.667969 9.511719-1.328125 1.890625-3.445313 2.902344-5.59375 2.902344zm0 0"/><path d="m312.6875 314.371094c-1.414062 0-2.839844-.4375-4.0625-1.34375-15.8125-11.726563-30.351562-24.804688-43.203125-38.875-2.539063-2.785156-2.347656-7.101563.433594-9.644532 2.777343-2.535156 7.097656-2.351562 9.644531.4375 12.269531 13.421876 26.148438 25.910157 41.261719 37.117188 3.023437 2.246094 3.660156 6.519531 1.417969 9.550781-1.339844 1.804688-3.40625 2.757813-5.492188 2.757813zm0 0"/><path d="m203.601562 143c-3.234374 0-6.109374-2.304688-6.707031-5.59375-2.613281-14.25-3.175781-24.308594-3.289062-27.972656-.125-3.769532 2.828125-6.921875 6.601562-7.046875.070313-.003907.144531-.003907.226563-.003907 3.664062 0 6.691406 2.914063 6.8125 6.605469.113281 3.359375.632812 12.613281 3.074218 25.957031.679688 3.707032-1.773437 7.265626-5.480468 7.941407-.417969.078125-.832032.113281-1.238282.113281zm0 0"/><path d="m345.773438 276.371094c-1.367188 0-2.746094-.410156-3.945313-1.257813-5.726563-4.066406-11.347656-8.34375-16.707031-12.710937-2.917969-2.382813-3.359375-6.683594-.980469-9.605469 2.375-2.914063 6.679687-3.359375 9.609375-.980469 5.125 4.179688 10.503906 8.273438 15.984375 12.164063 3.074219 2.183593 3.792969 6.445312 1.613281 9.519531-1.335937 1.871094-3.433594 2.871094-5.574218 2.871094zm0 0"/><path d="m283.660156 217.144531c-2.039062 0-4.058594-.910156-5.40625-2.648437-10.648437-13.753906-20.039062-28.554688-27.925781-43.988282-1.714844-3.363281-.382813-7.472656 2.972656-9.1875 3.351563-1.710937 7.472657-.386718 9.1875 2.972657 7.5 14.683593 16.4375 28.761719 26.566407 41.847656 2.304687 2.980469 1.757812 7.265625-1.222657 9.578125-1.246093.960938-2.710937 1.425781-4.171875 1.425781zm0 0"/><path d="m233.988281 278.679688c-3.15625 0-6.28125-.050782-9.40625-.164063-3.769531-.132813-6.714843-3.292969-6.582031-7.0625.132812-3.773437 3.546875-6.796875 7.0625-6.582031 40.058594 1.417968 82.507812-6.710938 126.039062-24.125 3.472657-1.386719 7.472657.304687 8.875 3.804687 1.398438 3.503907-.308593 7.472657-3.808593 8.875-41.933594 16.773438-82.988281 25.253907-122.179688 25.253907zm0 0"/><path d="m166.003906 269.0625c-.65625 0-1.324218-.097656-1.984375-.296875-14.535156-4.402344-25.007812-9.289063-31.230469-12.609375-3.328124-1.777344-4.585937-5.910156-2.8125-9.238281 1.773438-3.328125 5.910157-4.59375 9.238282-2.808594 5.6875 3.03125 15.289062 7.503906 28.765625 11.589844 3.605469 1.09375 5.648437 4.902343 4.554687 8.511719-.894531 2.945312-3.601562 4.851562-6.53125 4.851562zm0 0"/><path d="m233.460938 250.816406c-1.855469 0-3.632813-.023437-5.355469-.058594-3.773438-.082031-6.757813-3.207031-6.679688-6.972656.082031-3.765625 3.289063-6.632812 6.972657-6.679687 26.886718.632812 70.214843-3.234375 124.054687-24.773438 3.472656-1.386719 7.472656.304688 8.875 3.804688 1.398437 3.503906-.308594 7.472656-3.808594 8.875-52.546875 21.015625-95.691406 25.804687-124.058593 25.804687zm0 0"/><path d="m168.03125 241.800781c-.632812 0-1.277344-.089843-1.914062-.273437-25-7.292969-38.59375-16.242188-39.160157-16.617188-3.136719-2.089844-3.984375-6.328125-1.890625-9.46875 2.085938-3.128906 6.308594-3.976562 9.453125-1.898437.25.160156 12.726563 8.261719 35.417969 14.875 3.621094 1.054687 5.699219 4.84375 4.644531 8.464843-.871093 2.980469-3.59375 4.917969-6.550781 4.917969zm0 0"/><path d="m235.433594 222.957031c-3.75 0-6.804688-3.03125-6.824219-6.789062-.023437-3.769531 3.019531-6.847657 6.785156-6.867188 37.039063-.207031 75.976563-8.378906 115.707031-24.273437 3.472657-1.402344 7.472657.300781 8.875 3.800781 1.398438 3.5-.308593 7.472656-3.808593 8.875-41.324219 16.535156-81.933594 25.03125-120.691407 25.253906-.015624 0-.03125 0-.042968 0zm0 0"/><path d="m275.179688 203.320312c-2.878907 0-5.558594-1.839843-6.492188-4.726562-1.160156-3.589844.808594-7.433594 4.394531-8.597656.464844-.148438 46.644531-15.351563 64.058594-41.8125 2.066406-3.144532 6.296875-4.019532 9.453125-1.953125 3.148438 2.074219 4.019531 6.308593 1.945312 9.457031-20.058593 30.492188-69.179687 46.628906-71.257812 47.300781-.699219.222657-1.40625.332031-2.101562.332031zm0 0"/><path d="m261.527344 182.839844c-2.878906 0-5.558594-1.839844-6.492188-4.726563-1.160156-3.589843.804688-7.433593 4.390625-8.597656.429688-.136719 42.886719-14.105469 61.78125-38.621094 2.292969-2.988281 6.578125-3.546875 9.574219-1.238281 2.984375 2.300781 3.539062 6.585938 1.238281 9.570312-21.5 27.898438-66.492187 42.664063-68.390625 43.28125-.703125.226563-1.40625.332032-2.101562.332032zm0 0"/></g><path d="m186.464844 172.179688-111.058594-52.609376c-1.894531-13.574218-14.332031-23.148437-27.964844-21.417968-13.738281 1.746094-23.460937 14.296875-21.714844 28.035156 1.746094 13.738281 14.296876 23.460938 28.035157 21.714844 3.761719-.480469 7.175781-1.824219 10.183593-3.726563l114.148438 54.070313c2.300781-8.671875 5.046875-17.421875 8.371094-26.066406zm0 0" fill="#b5a19c"/><path d="m178.089844 205.074219c-1 0-1.996094-.21875-2.921875-.65625l-110.992188-52.582031c-3.046875 1.464843-6.25 2.417968-9.554687 2.835937-17.488282 2.171875-33.453125-10.179687-35.667969-27.625-2.214844-17.453125 10.179687-33.453125 27.628906-35.671875 15.929688-2.035156 30.796875 8.289062 34.824219 23.480469l107.984375 51.152343c3.222656 1.527344 4.730469 5.285157 3.449219 8.621094-3.035156 7.898438-5.78125 16.433594-8.152344 25.367188-.519531 1.960937-1.882812 3.59375-3.722656 4.445312-.910156.421875-1.894532.632813-2.875.632813zm-114.144532-67.726563c.996094 0 1.992188.21875 2.921876.65625l106.835937 50.613282c1.316406-4.4375 2.71875-8.757813 4.199219-12.941407l-105.421875-49.9375c-2.078125-.988281-3.519531-2.949219-3.835938-5.230469-1.371093-9.839843-10.476562-16.820312-20.34375-15.582031-9.980469 1.265625-17.070312 10.417969-15.800781 20.402344 1.265625 9.980469 10.4375 17.09375 20.398438 15.800781 2.566406-.324218 5.054687-1.242187 7.394531-2.71875 1.109375-.703125 2.378906-1.0625 3.652343-1.0625zm0 0" fill="#4c241d"/><path d="m412.488281 294.519531-18.921875-23.878906-38.292968-18.207031c-2.953126 8.675781-6.90625 16.871094-11.726563 24.480468l38.710937 18.40625zm0 0" fill="#b5a19c"/><path d="m382.261719 302.148438c-1.015625 0-2.015625-.226563-2.933594-.660157l-38.714844-18.40625c-1.757812-.839843-3.082031-2.398437-3.625-4.273437-.542969-1.878906-.253906-3.898438.792969-5.546875 4.578125-7.234375 8.292969-14.980469 11.03125-23.027344.628906-1.84375 2.015625-3.332031 3.808594-4.089844 1.777344-.753906 3.824218-.710937 5.585937.125l38.292969 18.207031c.941406.449219 1.765625 1.109376 2.417969 1.925782l18.921875 23.875c1.601562 2.027344 1.925781 4.789062.832031 7.132812-1.09375 2.339844-3.417969 3.867188-6.007813 3.933594l-30.226562.800781c-.058594.003907-.117188.003907-.175781.003907zm-29.042969-28.191407 30.496094 14.5 14.9375-.398437-9.453125-11.933594-30.152344-14.335938c-1.714844 4.152344-3.660156 8.214844-5.828125 12.167969zm0 0" fill="#4c241d"/><path d="m208.378906 130.386719-55.007812-87.695313c1.53125-3.238281 2.449218-6.816406 2.449218-10.636718 0-13.847657-11.226562-25.074219-25.074218-25.074219-13.851563 0-25.074219 11.226562-25.074219 25.074219 0 13.71875 11.023437 24.824218 24.6875 25.035156l62.640625 99.863281c4.363281-9.199219 9.453125-18.132813 15.378906-26.566406zm0 0" fill="#b5a19c"/><path d="m192.992188 163.78125c-2.339844 0-4.527344-1.199219-5.78125-3.199219l-60.8125-96.960937c-15.507813-2.140625-27.554688-15.566406-27.554688-31.5625 0-17.589844 14.308594-31.902344 31.898438-31.902344 17.589843 0 31.902343 14.3125 31.902343 31.902344 0 3.371094-.550781 6.699218-1.644531 9.945312l53.15625 84.757813c1.457031 2.328125 1.382812 5.300781-.199219 7.550781-5.433593 7.742188-10.414062 16.347656-14.800781 25.574219-1.070312 2.246093-3.277344 3.738281-5.765625 3.882812-.128906.007813-.265625.011719-.398437.011719zm-62.246094-149.972656c-10.0625 0-18.246094 8.1875-18.246094 18.25 0 9.886718 8.058594 18.054687 17.964844 18.207031 2.3125.035156 4.449218 1.238281 5.679687 3.199219l56.257813 89.695312c2.472656-4.492187 5.085937-8.808594 7.820312-12.929687l-52.632812-83.910157c-1.238282-1.972656-1.382813-4.4375-.390625-6.542968 1.191406-2.523438 1.792969-5.117188 1.792969-7.71875 0-10.0625-8.183594-18.25-18.246094-18.25zm0 0" fill="#4c241d"/><path d="m318.125 305.359375c-7.050781 5.648437-14.804688 10.421875-23.070312 14.308594l30.507812 48.640625 26.074219 15.761718-3.015625-30.089843zm0 0" fill="#b5a19c"/><path d="m351.632812 390.894531c-1.21875 0-2.445312-.324219-3.53125-.984375l-26.066406-15.753906c-.914062-.554688-1.679687-1.316406-2.246094-2.21875l-30.515624-48.644531c-1.039063-1.660157-1.320313-3.675781-.765626-5.554688.546876-1.875 1.878907-3.421875 3.644532-4.253906 7.867187-3.6875 15.167968-8.214844 21.707031-13.453125 1.523437-1.214844 3.488281-1.726562 5.410156-1.398438 1.917969.320313 3.605469 1.453126 4.644531 3.101563l30.492188 48.621094c.554688.886719.902344 1.898437 1.007812 2.945312l3.015626 30.085938c.257812 2.574219-.960938 5.074219-3.148438 6.453125-1.113281.703125-2.378906 1.054687-3.648438 1.054687zm-21.144531-27.585937 12.992188 7.851562-1.492188-14.902344-25.707031-40.992187c-3.660156 2.558594-7.492188 4.933594-11.472656 7.105469zm0 0" fill="#4c241d"/></svg>