<svg height="504pt" viewBox="0 0 504 504.07633" width="504pt" xmlns="http://www.w3.org/2000/svg"><path d="m428.105469 285.628906c0 2.769532-.082031 5.457032-.167969 8.226563-.621094 17.117187-3.382812 34.09375-8.222656 50.527343-4.640625 16.117188-11.265625 31.597657-19.726563 46.078126-19.214843 33.425781-47.304687 60.878906-81.164062 79.320312-15.546875 8.558594-32.136719 15.078125-49.355469 19.386719-16.742188 4.195312-33.9375 6.308593-51.199219 6.296875-4.195312 0-8.390625-.085938-12.589843-.417969-110.808594-6.609375-197.277344-98.414063-197.246094-209.417969 0-2.769531.085937-5.539062.167968-8.308594.785157-20.71875 4.660157-41.199218 11.5-60.769531 4.996094-14.492187 11.613282-28.371093 19.722657-41.378906h.085937c35.671875-57.785156 97.15625-94.679687 164.929688-98.960937 4.449218-.25 8.898437-.417969 13.429687-.417969 55.65625-.015625 109.039063 22.089843 148.390625 61.445312 39.355469 39.355469 61.460938 92.734375 61.445313 148.390625zm0 0" fill="#ff9301"/><path d="m402.925781 285.628906c0 2.769532-.082031 5.457032-.167969 8.226563-.621093 17.117187-3.382812 34.09375-8.226562 50.527343-4.636719 16.117188-11.265625 31.597657-19.722656 46.078126-19.214844 33.425781-47.308594 60.878906-81.164063 79.320312-27.066406 14.890625-57.125 23.523438-87.964843 25.265625-110.808594-6.609375-197.277344-98.414063-197.246094-209.417969 0-2.769531.085937-5.539062.167968-8.308594.785157-20.71875 4.660157-41.199218 11.5-60.769531 4.996094-14.492187 11.613282-28.371093 19.722657-41.378906h.085937c35.671875-57.785156 97.15625-94.679687 164.929688-98.960937 111.152344 6.15625 198.117187 98.097656 198.085937 209.417968zm0 0" fill="#f9bc08"/><path d="m444.894531 42.21875c0 18.542969-15.03125 33.574219-33.574219 33.574219-18.542968 0-33.574218-15.03125-33.574218-33.574219s15.03125-33.574219 33.574218-33.574219c18.542969 0 33.574219 15.03125 33.574219 33.574219zm0 0" fill="#cad3d7"/><path d="m486.859375 92.578125c.023437 11.1875-5.539063 21.648437-14.824219 27.882813-9.289062 6.238281-21.074218 7.429687-31.421875 3.175781-4.339843-1.722657-8.261719-4.359375-11.5-7.722657-11.609375-12.050781-12.574219-30.804687-2.265625-43.984374l10.910156-9.0625c.96875-.53125 1.980469-.980469 3.023438-1.34375 3.960938-1.65625 8.210938-2.511719 12.503906-2.519532 18.542969 0 33.574219 15.035156 33.574219 33.574219zm0 0" fill="#607d86"/><path d="m461.679688 92.578125c.015624 13.695313-8.335938 26.007813-21.066407 31.058594-4.339843-1.722657-8.261719-4.359375-11.5-7.722657-11.609375-12.050781-12.574219-30.804687-2.265625-43.984374l10.910156-9.0625c.96875-.53125 1.980469-.980469 3.023438-1.34375 12.636719 5.136718 20.898438 17.417968 20.898438 31.054687zm0 0" fill="#cad3d7"/><path d="m269.46875 489.167969c-16.742188 4.195312-33.9375 6.308593-51.199219 6.296875-20.421875-36.640625-43.746093-71.582032-69.75-104.5-15.535156-19.5625-32.449219-37.992188-50.609375-55.144532-51.117187-47.757812-86.957031-57.914062-89.308594-58.5.785157-20.71875 4.660157-41.199218 11.5-60.769531 0 0 199.007813 87.964844 249.367188 272.617188zm0 0" fill="#f07c00"/><path d="m318.824219 469.78125c-15.546875 8.558594-32.136719 15.078125-49.355469 19.386719-50.359375-184.652344-249.367188-272.617188-249.367188-272.617188 4.996094-14.492187 11.613282-28.371093 19.722657-41.378906h.085937c19.3125 4.714844 38.097656 11.382813 56.066406 19.890625 19.4375 9.011719 38.105469 19.59375 55.816407 31.644531 18.3125 12.347657 35.523437 26.25 51.453125 41.546875 18.835937 18.09375 35.84375 38 50.78125 59.425782 29.753906 43.207031 51.6875 91.304687 64.796875 142.101562zm0 0" fill="#d34315"/><path d="m419.714844 344.382812c-4.640625 16.117188-11.265625 31.597657-19.726563 46.078126-6.941406-6.480469-14.316406-12.480469-22.074219-17.960938-15.628906-11.3125-32.460937-20.855469-50.191406-28.453125-23.261718-10.222656-48.296875-15.78125-73.695312-16.367187-2.6875-3.945313-5.457032-7.722657-8.308594-11.414063-12.8125-17.148437-27.015625-33.203125-42.472656-48.011719 46.804687-2.300781 93.449218 6.984375 135.804687 27.027344.085938 0 .167969.082031.253907.082031 28.785156 12.84375 55.808593 29.316407 80.410156 49.019531zm0 0" fill="#d34315"/><path d="m394.53125 331.875c-4.070312 14.097656-9.640625 27.71875-16.617188 40.625-1.007812 1.847656-2.015624 3.695312-3.105468 5.457031-14.296875-13.128906-30.101563-24.511719-47.085938-33.910156-25.164062-14.742187-53.066406-24.195313-82.003906-27.78125-12.8125-17.148437-27.015625-33.203125-42.472656-48.011719 46.804687-2.300781 93.449218 6.984375 135.804687 27.027344.085938 0 .167969.082031.253907.082031 19.53125 10.382813 38.027343 22.609375 55.226562 36.511719zm0 0" fill="#f07c00"/><path d="m427.9375 293.855469c-.621094 17.117187-3.382812 34.09375-8.222656 50.527343 0 0-98.960938-84.523437-216.46875-76.128906-3.777344-3.609375-7.46875-7.050781-11.246094-10.324218-12.691406-11.289063-26.125-21.722657-40.207031-31.222657 110.710937-35.503906 207.824219 17.457031 251.636719 48.09375 8.523437 5.882813 16.703124 12.246094 24.507812 19.054688zm0 0" fill="#c02828"/><path d="m403.429688 274.800781c.097656 16.9375-1.875 33.820313-5.875 50.277344 0 0-94.59375-73.441406-205.554688-67.148437-12.691406-11.289063-26.125-21.722657-40.207031-31.222657 110.710937-35.503906 207.824219 17.457031 251.636719 48.09375zm0 0" fill="#d34315"/><path d="m428.105469 285.628906c0 2.769532-.082031 5.457032-.167969 8.226563-5.285156-4.785157-128.671875-114.488281-276.144531-67.148438-2.601563-1.761719-5.285157-3.527343-7.804688-5.203125-15.363281-9.925781-31.40625-18.761718-48.011719-26.441406 139.753907-63.371094 256.085938-1.929688 304.347657 31.558594 8.328125 5.644531 16.289062 11.8125 23.835937 18.46875 2.636719 13.351562 3.960938 26.929687 3.945313 40.539062zm0 0" fill="#d34315"/><path d="m407.375 272.199219c-5.371094-4.195313-127.160156-95.683594-263.386719-50.695313-15.363281-9.925781-31.40625-18.761718-48.011719-26.441406 139.753907-63.371094 256.085938-1.929688 304.347657 31.558594 3.347656 12.21875 5.539062 24.722656 6.546875 37.351562.25 2.769532.335937 5.457032.503906 8.226563zm0 0" fill="#f07c00"/><path d="m.503906 299.789062.125 1.894532c.160156 2.148437.320313 4.359375.628906 7.152344.234376 2.242187.480469 4.542968.839844 6.714843.34375 2.46875.695313 4.84375 1.140625 7.277344.445313 2.433594.839844 4.800781 1.410157 7.335937l3.988281 16.082032c.476562 1.679687.964843 3.355468 1.46875 4.859375.6875 2.234375 1.460937 4.472656 2.300781 6.898437.796875 2.285156 1.585938 4.574219 2.472656 6.773438 1.070313 2.855468 3.601563 4.910156 6.613282 5.363281 3.015624.453125 6.039062-.761719 7.898437-3.175781 1.863281-2.414063 2.265625-5.648438 1.058594-8.449219-.789063-1.945313-1.484375-3.976563-2.238281-6.175781-.707032-2.054688-1.421876-4.113282-2.125-6.386719-.496094-1.46875-.90625-2.90625-1.328126-4.355469l-3.734374-14.992187c-.484376-2.257813-.878907-4.433594-1.28125-6.714844-.40625-2.28125-.730469-4.390625-1.042969-6.648437-.292969-2.039063-.519531-4.144532-.839844-6.847657-.207031-1.949219-.351563-3.960937-.496094-5.875l-.125-1.824219c-.140625-2.003906-.269531-3.96875-.34375-6 0-1.097656-.050781-2.207031-.058593-3.355468 25.207031 11.839844 48.390624 27.582031 68.691406 46.648437l-82.84375 77.816407c-3.378906 3.175781-3.542969 8.488281-.367188 11.867187 3.175782 3.378906 8.488282 3.546875 11.867188.371094l83.625-78.605469c2.300781 2.234375 4.605468 4.40625 6.90625 6.714844 10.914062 11.039062 21.738281 23.214844 32.425781 36.210937l-101.007813 99.109375c-2.191406 2.085938-3.089843 5.195313-2.347656 8.128906.738282 2.9375 3.003906 5.246094 5.921875 6.042969 2.921875.796875 6.046875-.035156 8.175781-2.1875l99.730469-97.851562c20.308594 26.414062 38.894531 54.105469 55.648438 82.902343-.839844-.058593-1.675781-.089843-2.515625-.160156-2.878906-.242187-5.667969-.5625-8.730469-.988281-2.785156-.3125-5.574219-.796875-8.394531-1.285156-2.820313-.484375-5.496094-.941407-8.390625-1.609375-1.796875-.378906-3.601563-.839844-5.398438-1.261719l-2.71875-.652344c-2.761719-.730469-5.515625-1.539062-8.183593-2.351562-2.671876-.8125-5.246094-1.679688-8.015626-2.675781-1.882812-.648438-3.792968-1.378907-5.691406-2.089844l-2.015625-.765625c-2.03125-.839844-4.011719-1.679688-6.015625-2.585938l-1.679687-.738281c-2.34375-1.046875-4.660157-2.171875-7.3125-3.449219l-7.554688-4.019531c-4.066406-2.035156-9.015625-.457031-11.15625 3.554688-2.140625 4.015624-.695312 9.003906 3.261719 11.25l7.550781 4.039062.90625.445312c2.46875 1.191407 4.9375 2.382813 7.480469 3.515626l1.679688.753906c2.15625.949218 4.289062 1.898437 6.714843 2.863281l2.164063.839844c2.074218.78125 4.195312 1.578125 6.070312 2.230469 2.910156 1.058593 5.816406 2.023437 8.734375 2.914062 2.921875.890625 5.816407 1.738281 8.992188 2.566406l2.777343.683594c1.996094.484375 4.003907.972656 5.792969 1.339844 2.984375.699218 6.074219 1.234375 9.230469 1.773437 3.15625.535157 6.1875 1.054688 9.082031 1.390625 3.171875.4375 6.253907.789063 9.441407 1.058594 3.191406.269531 6.1875.429688 9.519531.605469 3.089843.074219 6.195312.160156 9.382812.160156 7.4375.019531 14.871094-.355469 22.269531-1.125 7.28125-.71875 14.519532-1.839844 21.679688-3.359375 3.082031-.621094 6.246094-1.324219 9.234375-2.089844l.199219-.058594c3.828125-.9375 7.664062-2.039062 11.609375-3.207031 6.636719-2.128906 13.328125-4.582031 19.949219-7.316406 6.378906-2.699219 12.617187-5.71875 18.695312-9.039063.398438-.207031.789062-.433593 1.164062-.683593 5.941407-3.164063 11.703126-6.652344 17.257813-10.457031 6.285156-4.304688 11.75-8.394532 16.710937-12.539063 5.164063-4.253906 10.230469-8.839844 15.585938-14.109375s9.828125-10.398438 13.976562-15.445312c4.144532-5.042969 8.394532-10.589844 12.589844-16.785157 3.355469-4.945312 5.875-9.117187 7.863282-12.734375.203124-.328125.355468-.628906.554687-.957031.058594-.140625.175781-.257813.234375-.410156.78125-1.300781 1.578125-2.609375 2.226562-3.835938 3.296876-6.007812 6.320313-12.261719 9.296876-19.222656 1.261718-3.070313 2.367187-6.132813 3.5-9.1875 12.59375-3.148437 26.734374-3.039063 32.734374 4.195313 8.933594 11.527343 8.792969 27.679687-.34375 39.046874-5.632812 4.847657-12.121093 8.601563-19.136718 11.0625-11.484375 3.667969-21.519532 10.863282-28.679688 20.5625-7.523437 12.347657-7.742187 27.808594-.570312 40.363282 8.464844 15.835937 24.445312 26.234375 42.351562 27.550781h2.335938c20.984375 0 45.617187-10.710937 51.71875-31.445313.945312-2.902343.234375-6.09375-1.851563-8.324218-2.085937-2.230469-5.21875-3.152344-8.183593-2.40625-2.960938.746094-5.285157 3.042968-6.0625 6-3.675782 12.722656-22.417969 20.007812-37.25 19.378906-11.957032-1.066406-22.574219-8.089844-28.234376-18.675781-4.363281-7.296875-4.328124-16.40625.082032-23.667969 5.464844-6.640625 12.789062-11.496094 21.035156-13.941406 9.046875-3.246094 17.363281-8.25 24.464844-14.722656 15.128906-17.539063 15.667968-43.351563 1.277344-61.5-9.234376-11.121094-24.921876-13.488282-39.886719-11.617188 1.25-4.414062 2.460937-8.820312 3.359375-13.488281 1.5-7.125 2.605468-14.328125 3.304687-21.578125.53125-4.574219.796875-9.234375.984375-14.21875.082032-2.761719.167969-5.449219.167969-8.226563 0-3.011719-.085937-6.117187-.167969-9.132812 0-.082031 0-.835938-.050781-.972657-.167969-2.777343-.328125-5.546874-.605469-8.679687-.25-2.902344-.519531-5.875-.914062-8.550781-.351563-3.023438-.839844-6.136719-1.277344-8.730469-.285156-2.074219-.660156-4.246094-1.066406-6.015625l-.628906-3.015625c-.628907-3.019531-1.242188-5.957031-1.988282-8.667969-.703125-2.914062-1.511718-5.75-2.339844-8.511718-.832031-2.761719-1.679687-5.433594-2.679687-8.3125-.773437-2.464844-1.679687-4.875-2.601563-7.324219l-.429687-1.144531c-1.039063-2.710938-2.1875-5.421876-3.355469-8.15625-1.167968-2.738282-2.382812-5.1875-3.675781-7.933594-1.269531-2.515625-2.519531-5.117188-3.835937-7.59375-2.136719-4.113282-7.207032-5.71875-11.320313-3.582032-4.113281 2.136719-5.714844 7.207032-3.578125 11.320313 1.242188 2.390625 2.515625 4.867187 3.625 7.160156 1.167969 2.515625 2.316406 4.960938 3.425781 7.410157 1.105469 2.449218 2.097657 4.902343 3.027344 7.34375l.421875 1.101562c.839844 2.148438 1.609375 4.261719 2.515625 7 .289063.839844.546875 1.746094.839844 2.601562-15.371094-10.929687-31.585938-20.625-48.488281-29l68.265624-67.011718c14.886719 10.160156 34.601563 9.675781 48.976563-1.199219 14.375-10.878906 20.199219-29.71875 14.46875-46.808594-5.730469-17.089843-21.734375-28.613281-39.761719-28.625-.285156 0-.570312.050781-.835937.050781 3.890625-18.390624-4.917969-37.128906-21.5625-45.859374-16.648438-8.734376-37.070313-5.328126-49.988281 8.328124-12.914063 13.65625-15.175782 34.238282-5.527344 50.371094l-106.464844 100.242188c-58.515625-9.964844-118.671875-2.234375-172.769531 22.203125-13.898438-6.261719-28.199219-11.589844-42.804688-15.949219.191407-.277344.34375-.5625.542969-.839844 3.703125-5.253906 7.597656-10.265625 11.585938-14.863281 4.085937-4.734375 8.460937-9.351563 12.992187-13.714844s9.308594-8.585937 14.132813-12.457031c5.289062-4.195312 10.308593-7.789062 15.378906-11.09375 5.070312-3.308594 10.589844-6.625 16.382812-9.679688 4.953125-2.660156 10.449219-5.246093 17.148438-8.097656 6.210937-2.519531 12.3125-4.683594 18.136718-6.449218 6.582032-1.972657 12.785157-3.523438 18.886719-4.75 7.429688-1.410157 13.648438-2.332032 19.554688-2.910157 9.324219-.871093 18.695312-1.152343 28.050781-.839843 2.605469.074218 5.207031.234374 7.554688.375l7.722656.730468c2.585937.328125 5.085937.648438 7.636718 1.058594 2.554688.410156 5.039063.839844 7.554688 1.292969 2.519531.453125 4.976562 1.050781 7.730469 1.679687 2.324219.542969 4.644531 1.089844 6.714843 1.675782l9.738282 2.921874c1.519531.503907 3.027344 1.007813 4.800781 1.679688 2.324219.839844 4.640625 1.679688 6.972656 2.59375 2.335938.914062 4.410157 1.777344 6.574219 2.785156 4.191406 1.894532 9.128906.058594 11.066406-4.113281 1.9375-4.175781.152344-9.128906-4-11.109375-2.519531-1.175781-5.035156-2.269531-7.605468-3.226562-2.566407-.957032-5.035157-1.929688-7.300782-2.710938-1.730468-.660156-3.464844-1.242188-5.195312-1.820312l-10.515625-3.164063c-2.519531-.664063-4.96875-1.25-7.816407-1.914063-2.609374-.605468-5.320312-1.226562-8.023437-1.746093s-5.3125-.957031-8.066406-1.382813c-2.753907-.429687-5.398438-.789062-8.394531-1.160156l-8.273438-.78125c-2.769531-.175781-5.550781-.34375-8.3125-.425781-10.078125-.378907-20.171875-.101563-30.214844.839843-6.34375.621094-13.238281 1.675782-21.144531 3.144532-6.714844 1.335937-13.429687 3.015625-20.503906 5.148437-6.335938 1.910157-12.941407 4.261719-19.734375 7.023438-7.308594 3.097656-13.234375 5.875-18.613282 8.78125-6.222656 3.289062-12.1875 6.820312-17.695312 10.457031-5.507812 3.632812-10.871094 7.460938-16.617188 11.984375-5.28125 4.238281-10.441406 8.789063-15.335937 13.515625-4.894531 4.722656-9.621094 9.703125-14.050781 14.820312-4.433594 5.121094-8.578125 10.46875-12.515625 16.058594-2.441407 3.355469-4.742188 6.914063-6.957031 10.507813-.230469.285156-.445313.585937-.636719.898437-1.234375 2.015625-2.453125 4.027344-3.570313 6-3.355468 5.875-6.554687 12.078125-9.40625 18.308594-2.789062 6-5.253906 12.148438-7.378906 18.414062-.148438.300782-.277344.605469-.386719.921876-2.292969 6.613281-4.253906 13.335937-5.875 20.144531-1.679687 6.898437-2.996093 13.882812-3.945312 20.917969-.929688 6.890624-1.511719 13.429687-1.796875 19.691406-.183594.6875-.2734378 1.398437-.2695315 2.113281.03125.34375.0820315.6875.1523435 1.023437 0 .414063-.066406.839844-.066406 1.160157v1.007812h.09375c0-.1875.167969-.460937.214844-.671875-.058594.234375-.15625.417969-.207032.652344h.527344c.121094.320312.265625.628906.429688.925781l-1.058594.125c0-.082031 0-.203125 0-.335937-.0546875.464844-.0820312.933594-.0859375 1.402344v3.105468c0 2.519532 0 5.035156.0937495 7.554688.074219 2.25.210938 4.40625.371094 6.605468zm238.371094 186.242188c-4.96875.527344-10.433594.839844-15.863281.914062-20.015625-35.433593-42.722657-69.277343-67.917969-101.234374-4.207031-5.238282-8.441406-10.34375-12.699219-15.316407-12.15625-14.265625-25.082031-27.851562-38.726562-40.699219-41.273438-38.542968-73.007813-53.300781-86.285157-58.335937.316407-4.398437.738282-8.921875 1.382813-13.679687.871094-6.46875 2.082031-12.890626 3.628906-19.230469.835938-3.585938 1.769531-6.957031 2.710938-10.191407 37.171875 18.761719 187.691406 102.839844 233.722656 254.71875-6.59375 1.386719-13.261719 2.40625-19.96875 3.054688zm57.917969-14.773438c-6.121094 2.519532-12.375 4.816407-18.398438 6.714844-1.042969.3125-2.152343.578125-3.207031.882813-49.003906-163.3125-208.234375-248.976563-244.542969-266.628907 1.265625-3.203124 2.652344-6.519531 4.304688-10.136718 2.644531-5.765625 5.574219-11.476563 8.746093-17.007813l.175782-.292969c16.128906 4.488282 31.875 10.253907 47.085937 17.242188.820313.570312 1.734375.988281 2.703125 1.234375 18.597656 8.691406 36.46875 18.859375 53.441406 30.398437 17.917969 12.082032 34.769532 25.679688 50.363282 40.640626 18.429687 17.722656 35.082031 37.210937 49.710937 58.183593 27.894531 40.578125 48.761719 85.558594 61.726563 133.0625-3.925782 1.980469-7.914063 3.894531-12.160156 5.707031zm-38.34375-151.738281c-10.859375-15.265625-22.757813-29.765625-35.605469-43.402343 91.3125 1.261718 168.800781 56.96875 187.226562 71.296874-.445312 1.359376-.839843 2.703126-1.394531 4.136719-1.453125 4.195313-3.082031 8.394531-4.742187 12.449219-1.988282 4.664062-4.070313 8.972656-6.238282 13.191406-19.671874-16.574218-72.617187-55.234375-139.246093-57.671875zm160.214843-13.199219c-.648437 6.714844-1.675781 13.390626-3.070312 19.992188-.238281 1.199219-.53125 2.367188-.789062 3.542969-28.371094-21.203125-111.265626-75.542969-208.453126-70.152344-11.183593-10.558594-22.972656-20.449219-35.3125-29.628906 124.863282-30.351563 229.140626 51.199219 248.246094 67.378906-.160156 2.941406-.277344 5.878906-.621094 8.867187zm-33.363281 91.921876c-3.902343 5.726562-7.796875 10.914062-11.632812 15.511718-3.835938 4.601563-8.125 9.410156-12.917969 14.269532-4.792969 4.859374-9.609375 9.082031-14.429688 13.050781-4.566406 3.820312-9.636718 7.613281-15.445312 11.582031-2.441406 1.679688-4.730469 3.097656-7 4.5-12.003906-42.355469-30.011719-82.777344-53.480469-120.027344 58.175781 6.648438 104.3125 42.449219 118.851563 54.960938-1.152344 1.964844-2.445313 3.972656-3.945313 6.152344zm67.984375-330.84375c11.757813-.113282 22.058594 7.851562 24.910156 19.257812 2.851563 11.40625-2.488281 23.277344-12.914062 28.710938-10.425781 5.433593-23.21875 3.007812-30.933594-5.863282s-8.34375-21.875-1.515625-31.445312c3.640625-2.207032 6.925781-4.953125 9.746094-8.140625 3.335937-1.628907 6.996094-2.488281 10.707031-2.519531zm-41.964844-50.359376c13.90625 0 25.179688 11.273438 25.179688 25.179688s-11.273438 25.179688-25.179688 25.179688-25.179687-11.273438-25.179687-25.179688 11.273437-25.179688 25.179687-25.179688zm-24.71875 58.921876c7.144532 5.320312 15.808594 8.203124 24.71875 8.226562.335938 0 .652344-.09375.988282-.101562-.621094 2.789062-.953125 5.636718-.988282 8.492187-.003906 7.996094 2.285157 15.828125 6.597657 22.5625l-72.90625 71.546875c-18.089844-7.894531-36.839844-14.179688-56.035157-18.785156zm29.839844 173.574218c.148438.839844.324219 1.679688.46875 2.664063.476563 2.601562.839844 5.363281 1.214844 8.28125.371094 2.585937.605469 5.246093.839844 8.152343.203125 2.382813.355468 4.808594.511718 7.554688-37.207031-28.328125-143.367187-95.921875-266.332031-58.605469-11.914062-7.921875-24.242187-15.207031-36.929687-21.820312 157.644531-60.847657 282.925781 39.003906 300.226562 53.773437zm0 0"/></svg>